<svg data-name="Layer 1" viewBox="0 0 519 119.7" xmlns="http://www.w3.org/2000/svg"><path d="M0 .6h2.9v118.6H0zm46.49 42.8h15.92c13.42 0 22.7 9.21 22.7 21.23v.12c0 12-9.28 21.35-22.7 21.35H46.49zM54 50.23v29h8.42c9 0 14.83-6 14.83-14.39v-.13c0-8.35-5.86-14.52-14.83-14.52zm37.57 19.95v-.12a16.84 16.84 0 0117.2-16.84c9.88 0 17.14 7.51 17.14 16.72v.12a16.84 16.84 0 01-17.26 16.78 16.66 16.66 0 01-17.08-16.66zm27 0v-.12c0-5.67-4.08-10.37-9.88-10.37S99 64.33 99 69.94v.12c0 5.61 4.09 10.31 9.82 10.31 5.93 0 9.71-4.64 9.71-10.19zm13.08 0v-.12a16.62 16.62 0 0116.77-16.84 16.28 16.28 0 0112.87 5.55l-4.63 4.95c-2.26-2.32-4.64-4-8.3-4-5.37 0-9.33 4.64-9.33 10.25v.12c0 5.73 4 10.31 9.64 10.31 3.47 0 6-1.59 8.35-4l4.46 4.4c-3.18 3.53-6.9 6-13.18 6a16.45 16.45 0 01-16.65-16.62zm36.17 4.21v-20.5h7.38V72.2c0 5 2.5 7.8 6.89 7.8s7.26-2.92 7.26-7.93V53.89h7.45V86.1h-7.45v-5c-2.07 3.05-5.06 5.68-10.06 5.68-7.29 0-11.47-4.89-11.47-12.39zm38.12-20.5h7.45v4.88c2.07-2.86 4.88-5.55 9.82-5.55a10.23 10.23 0 019.64 5.68 13 13 0 0110.86-5.68c7 0 11.28 4.46 11.28 12.33V86.1h-7.38V67.8c0-5.12-2.38-7.87-6.53-7.87s-6.89 2.81-6.89 8V86.1h-7.38V67.74c0-5-2.44-7.81-6.53-7.81s-6.89 3-6.89 8V86.1h-7.45zm56.18 16.23V70c0-9.21 6.53-16.78 15.74-16.78 10.25 0 15.44 8.06 15.44 17.33 0 .67-.06 1.34-.12 2.07h-23.67c.79 5.25 4.51 8.18 9.27 8.18 3.6 0 6.16-1.34 8.72-3.85l4.33 3.85a16.29 16.29 0 01-13.17 6c-9.34.04-16.54-6.74-16.54-16.68zM286 67.74c-.49-4.76-3.3-8.48-8.18-8.48-4.51 0-7.68 3.48-8.36 8.48zm14.68-13.85h7.44v5c2.07-3 5.06-5.62 10.06-5.62 7.26 0 11.47 4.88 11.47 12.33v20.5h-7.38V67.8c0-5-2.5-7.87-6.89-7.87s-7.26 3-7.26 8V86.1h-7.44zm39.4 23.31v-17H336v-6.31h4.09v-8.84h7.38v8.84h8.67v6.35h-8.67V76c0 2.87 1.47 4 4 4a9.9 9.9 0 004.53-1v6a12.82 12.82 0 01-6.65 1.64c-5.43.01-9.27-2.37-9.27-9.44zm21.35-.37v-.12c0-7 5.49-10.37 13.36-10.37a27 27 0 018.66 1.34v-.79c0-4.58-2.8-7-8-7a22.42 22.42 0 00-9.21 2l-2-5.8a27.89 27.89 0 0112.2-2.62c4.82 0 8.42 1.28 10.67 3.6s3.48 5.73 3.48 9.94V86.1h-7.2v-4a13.09 13.09 0 01-10.49 4.7c-6.04-.02-11.47-3.5-11.47-9.97zm22.15-2.32v-2.19a20.36 20.36 0 00-7.32-1.32c-4.76 0-7.57 2-7.57 5.36v.13c0 3.11 2.75 4.88 6.28 4.88 4.88.04 8.61-2.77 8.61-6.86zm17.07 2.69v-17h-4.08v-6.31h4.08v-8.84H408v8.84h8.66v6.35H408V76c0 2.87 1.46 4 4 4a10 10 0 004.58-1v6a12.85 12.85 0 01-6.65 1.64c-5.43.01-9.28-2.37-9.28-9.44zm23.67-35.26h7.93v7h-7.93zm.25 12H432V86.1h-7.44zm15.31 16.24v-.12a16.84 16.84 0 0117.2-16.84c9.88 0 17.14 7.51 17.14 16.72v.12A16.84 16.84 0 01457 86.84a16.66 16.66 0 01-17.12-16.66zm27 0v-.12c0-5.67-4.09-10.37-9.88-10.37s-9.7 4.64-9.7 10.25v.12c0 5.61 4.09 10.31 9.82 10.31 5.94 0 9.72-4.64 9.72-10.19zm14.78-16.29h7.44v5c2.08-3 5.07-5.62 10.07-5.62 7.26 0 11.47 4.88 11.47 12.33v20.5h-7.38V67.8c0-5-2.5-7.87-6.9-7.87s-7.26 3-7.26 8V86.1h-7.44z" fill="#fff"/></svg>