<svg version="1.1" id="Two_lines" xmlns="http://www.w3.org/2000/svg" x="0" y="0" viewBox="0 0 901.7 162.6" xml:space="preserve"><style>.st0{fill:#fff}</style><g id="Two_line_logo"><path class="st0" d="M318.6 65.2v-56H344c2.9 0 5.5.4 7.8 1.3s4.3 2 5.9 3.5c1.6 1.5 2.8 3.2 3.7 5.2.9 2 1.3 4.2 1.3 6.6 0 3.6-1 6.8-3.1 9.5s-4.9 4.7-8.4 5.8l12.5 24.1h-9.3l-11.6-23H327v23h-8.4zm24.7-48.6H327v18.7h16.3c3.5 0 6.2-.9 8.1-2.7 1.9-1.8 2.8-4 2.8-6.6 0-2.6-.9-4.8-2.8-6.6-1.8-1.9-4.5-2.8-8.1-2.8zm22.8 28.2c0-2.9.5-5.6 1.6-8.2s2.5-4.8 4.3-6.7c1.8-1.9 4-3.4 6.5-4.5s5.2-1.6 8-1.6 5.4.5 7.8 1.6c2.4 1.1 4.5 2.6 6.2 4.5 1.7 1.9 3.1 4.1 4.1 6.8 1 2.6 1.5 5.4 1.5 8.4v2.3H374c.5 3.4 2.1 6.1 4.6 8.4 2.6 2.2 5.6 3.3 9.1 3.3 2 0 3.9-.3 5.7-1 1.8-.6 3.4-1.5 4.6-2.6l5.1 5c-2.4 1.9-4.9 3.2-7.4 4.1-2.5.9-5.3 1.3-8.4 1.3-3 0-5.8-.5-8.4-1.6-2.6-1.1-4.9-2.6-6.8-4.4-1.9-1.9-3.4-4.1-4.5-6.7-1-2.6-1.5-5.4-1.5-8.4zm20.2-14.2c-3.1 0-5.8 1-8 3s-3.7 4.6-4.2 7.8h24.2c-.5-3.1-1.9-5.7-4.2-7.8-2.3-2-4.9-3-7.8-3zm58.8 34.6v-3.8c-1.7 1.4-3.6 2.5-5.8 3.3-2.1.8-4.4 1.2-6.7 1.2-2.9 0-5.6-.5-8.1-1.6s-4.7-2.6-6.5-4.5c-1.8-1.9-3.3-4.1-4.4-6.7-1.1-2.6-1.6-5.3-1.6-8.2s.5-5.6 1.6-8.2c1.1-2.6 2.5-4.8 4.4-6.7 1.8-1.9 4-3.4 6.6-4.5 2.5-1.1 5.3-1.6 8.2-1.6 2.3 0 4.5.3 6.6 1 2.1.7 4 1.7 5.7 3V9.2l8-1.8v57.8h-8zm-25.2-20.4c0 4 1.3 7.4 4 10.1 2.7 2.7 6 4.1 9.8 4.1 2.3 0 4.5-.4 6.4-1.3 1.9-.9 3.5-2.1 4.9-3.6V35.6c-1.3-1.4-2.9-2.6-4.9-3.5-2-.9-4.1-1.3-6.4-1.3-3.9 0-7.2 1.3-9.9 4-2.6 2.7-3.9 6-3.9 10zm60.2 20.4v-56h8.4v24h29.8v-24h8.4v56h-8.4V40.8h-29.8v24.4h-8.4zm69.1.8c-4.4 0-8-1.2-10.8-3.5-2.8-2.3-4.2-5.3-4.2-8.9 0-4.1 1.6-7.1 4.7-9.2 3.1-2.1 7.1-3.2 11.8-3.2 2 0 3.9.2 5.8.6 1.9.4 3.7.9 5.3 1.6v-4.3c0-2.9-.9-5-2.6-6.5-1.7-1.4-4.2-2.2-7.4-2.2-2 0-4 .3-6 .9-2.1.6-4.3 1.4-6.6 2.6l-3-6c2.9-1.3 5.7-2.4 8.4-3.1 2.7-.7 5.5-1.1 8.3-1.1 5.2 0 9.3 1.3 12.2 3.8 2.9 2.5 4.4 6.1 4.4 10.8v27h-7.8v-3.5c-1.8 1.4-3.7 2.5-5.8 3.2-2 .6-4.3 1-6.7 1zm-7.3-12.6c0 2 .9 3.6 2.6 4.8 1.7 1.2 3.9 1.8 6.6 1.8 2.1 0 4.1-.3 5.9-1 1.8-.6 3.4-1.6 4.9-2.9V49c-1.5-.8-3.1-1.4-4.8-1.8-1.7-.4-3.6-.6-5.7-.6-2.8 0-5 .6-6.8 1.8-1.8 1.2-2.7 2.9-2.7 5zm40.7 1.8v-24H574v-6.7h8.6V14.1l7.9-1.9v12.3h12v6.7h-12v22.1c0 2.1.5 3.5 1.4 4.4.9.9 2.5 1.3 4.6 1.3 1.2 0 2.2-.1 3-.2.9-.1 1.8-.4 2.8-.8v6.7c-1.1.4-2.4.7-3.8.9-1.4.2-2.7.3-3.8.3-3.9 0-7-.9-9-2.8-2-1.7-3.1-4.4-3.1-7.9zM318 93.2h21.5c16.8 0 29.6 12.3 29.6 28.2 0 15.6-12.8 27.8-29.6 27.8H318v-56zm11.6 10.4V139h9.8c10 0 17.7-7.7 17.7-17.5 0-10-7.7-17.8-17.7-17.8h-9.8zm67 3.2c12.5 0 22.2 9.5 22.2 21.7s-9.8 21.6-22.2 21.6-22.2-9.4-22.2-21.6c0-12.2 9.7-21.7 22.2-21.7zm0 9.5c-6.4 0-11.5 5.3-11.5 12.2 0 6.7 5 12.1 11.5 12.1s11.5-5.4 11.5-12.1c0-6.9-5-12.2-11.5-12.2zm59.3 19.5l6.6 6.8c-4.3 4.7-10.5 7.4-17 7.4-12.3 0-21.8-9.4-21.8-21.6 0-12.2 9.5-21.7 21.8-21.7 6.6 0 13 2.7 17.3 7.4l-6.7 7.1c-3.1-3.4-6.5-5-10.3-5-6.3 0-11.2 5.3-11.2 12.2 0 6.9 5 12 11.4 12 3.7 0 6.9-1.5 9.9-4.6zm23-3.9c0 5.2 3.4 8.7 8.7 8.7 3.7 0 6.6-1.4 8.6-4.2v-28.9h11v41.7h-11v-3.4c-3.1 2.7-7.1 4.2-11.7 4.2-9.8 0-16.5-6.9-16.5-16.6v-25.9h10.9v24.4zm36.5-24.3h11v3.1c3-2.6 6.6-3.9 10.9-3.9 5.4 0 9.8 2.3 12.6 6.2 3.4-4 8.2-6.2 13.8-6.2 9.4 0 16 6.9 16 16.6v25.9h-11V125c0-5.2-3-8.7-7.9-8.7-3.4 0-6.1 1.4-8 4.2.2.9.2 1.9.2 3v25.9h-11v-24.3c0-5.2-3-8.7-7.8-8.7-3.3 0-5.9 1.4-7.8 3.8v29.2h-11v-41.8zm92.2-.8c11.8 0 20.6 9.6 20.6 22.4v2.9h-31c1.5 5.2 6.1 8.7 11.8 8.7 3.7 0 7-1.2 9.2-3.4l7.2 6.6c-5.1 4.2-10.2 6-16.9 6-12.6 0-22.4-9.4-22.4-21.6 0-12 9.4-21.6 21.5-21.6zm-10.5 17.5h20.4c-1.4-5-5.3-8.4-10.2-8.4-5 0-8.8 3.3-10.2 8.4zm37.7-16.7h11v3.4c3.1-2.7 7.1-4.2 11.7-4.2 9.8 0 16.5 6.9 16.5 16.6v25.9h-11V125c0-5.2-3.4-8.7-8.7-8.7-3.7 0-6.6 1.4-8.6 4.2v28.9h-11v-41.8zm51.7 9.2h-8.6v-9.2h8.6V96.9l11-2.5v13.1h11.8v9.2h-11.8v18.5c0 3.9 1.5 5.4 5.8 5.4 2.2 0 3.8-.3 5.8-1v9c-2.4.7-6.2 1.3-8.5 1.3-9.1 0-14.1-4.2-14.1-12.4v-20.7zm26.2 20.4c0-8.2 6.7-12.6 17.1-12.6 3.6 0 7 .6 10.2 1.6v-3c0-4.9-3-7.3-8.8-7.3-3.8 0-7.8 1.3-12.7 3.4l-4-8.1c6.5-3 12.4-4.5 18.6-4.5 11.1 0 17.8 5.4 17.8 15.4v27H740v-3c-3.5 2.6-7.4 3.7-12.1 3.7-9.2.2-15.2-5.3-15.2-12.6zm18.1 4.9c3.5 0 6.6-.9 9.2-2.6v-6.2c-2.6-1-5.4-1.5-8.8-1.5-4.8 0-8 1.8-8 5.2 0 3.1 2.9 5.1 7.6 5.1zm32.5-25.3h-8.6v-9.2h8.6V96.9l11-2.5v13.1h11.8v9.2h-11.8v18.5c0 3.9 1.5 5.4 5.8 5.4 2.2 0 3.8-.3 5.8-1v9c-2.4.7-6.2 1.3-8.5 1.3-9.1 0-14.1-4.2-14.1-12.4v-20.7zm27.3-20.4c0-3.4 2.9-6.2 6.2-6.2 3.4 0 6.2 2.8 6.2 6.2 0 3.4-2.8 6.2-6.2 6.2-3.3 0-6.2-2.8-6.2-6.2zm11.8 52.8h-11v-41.7h11v41.7zm28.8-42.4c12.5 0 22.2 9.5 22.2 21.7s-9.8 21.6-22.2 21.6c-12.5 0-22.2-9.4-22.2-21.6-.1-12.2 9.7-21.7 22.2-21.7zm0 9.5c-6.4 0-11.5 5.3-11.5 12.2 0 6.7 5 12.1 11.5 12.1s11.5-5.4 11.5-12.1c0-6.9-5-12.2-11.5-12.2zm28.8-8.7h11v3.4c3.1-2.7 7.1-4.2 11.7-4.2 9.8 0 16.5 6.9 16.5 16.6v25.9h-10.9V125c0-5.2-3.4-8.7-8.7-8.7-3.7 0-6.6 1.4-8.6 4.2v28.9h-11v-41.8z"/><g id="Hat_icon_00000045618092305533552560000002143508710270356625_"><path id="Red_hat_00000161592424872907619370000002653157389874771348_" d="M129 92.2c12.5 0 30.6-2.6 30.6-17.5 0-1.2 0-2.3-.3-3.4L151.8 39c-1.7-7.1-3.2-10.3-15.7-16.6-9.7-5-30.8-13.1-37.1-13.1-5.8 0-7.5 7.5-14.4 7.5-6.7 0-11.6-5.6-17.9-5.6-6 0-9.9 4.1-12.9 12.5 0 0-8.4 23.7-9.5 27.2-.3.6-.3 1.3-.3 1.9 0 9.2 36.3 39.4 85 39.4zm32.5-11.4c1.7 8.2 1.7 9.1 1.7 10.1 0 14-15.7 21.8-36.4 21.8-46.8 0-87.7-27.4-87.7-45.5 0-2.8.6-5.4 1.5-7.3C23.8 60.8 2 63.8 2 83c0 31.5 74.6 70.3 133.7 70.3 45.3 0 56.7-20.5 56.7-36.6-.1-12.8-11-27.3-30.9-35.9z" fill="#e00"/><path id="Black_band_00000069357014588671757980000003861270178962354826_" d="M161.5 80.8c1.7 8.2 1.7 9.1 1.7 10.1 0 14-15.7 21.8-36.4 21.8-46.8 0-87.7-27.4-87.7-45.5 0-2.8.6-5.4 1.5-7.3l3.7-9.1c-.3.7-.3 1.4-.3 2 0 9.2 36.3 39.4 85 39.4 12.5 0 30.6-2.6 30.6-17.5 0-1.2 0-2.3-.3-3.4l2.2 9.5z"/></g><path id="Dividing_line_00000119830090696107459890000015049356360382162309_" class="st0" d="M255.5 160.7c-1.2 0-2.2-1-2.2-2.2V4.2c0-1.2 1-2.2 2.2-2.2s2.2 1 2.2 2.2v154.2c0 1.3-1 2.3-2.2 2.3z"/></g></svg>