<svg viewBox="0 0 105.833 105.833" xmlns="http://www.w3.org/2000/svg"><path class="cls-1" d="M67.329 57.977c5.67 0 13.874-1.188 13.874-8.04a6.346 6.446 0 00-.14-1.574l-3.377-14.899c-.78-3.278-1.464-4.765-7.13-7.643-4.397-2.283-13.975-6.054-16.808-6.054-2.638 0-3.404 3.453-6.55 3.453-3.027 0-5.276-2.578-8.109-2.578-2.72 0-4.492 1.883-5.86 5.755 0 0-3.812 10.92-4.302 12.505a2.915 2.96 0 00-.1.893c0 4.245 16.454 18.163 38.502 18.163m14.745-5.24c.784 3.771.784 4.167.784 4.665 0 6.445-7.135 10.023-16.513 10.023-21.195.014-39.761-12.602-39.761-20.94a8.363 8.495 0 01.684-3.375c-7.624.387-17.492 1.768-17.492 10.618 0 14.493 33.81 32.357 60.58 32.357 20.525 0 25.701-9.429 25.701-16.874 0-5.856-4.986-12.505-13.974-16.473" fill="#e00"/><path d="M82.074 52.719c.784 3.77.784 4.166.784 4.664 0 6.445-7.135 10.023-16.513 10.023-21.195.014-39.761-12.602-39.761-20.94a8.363 8.495 0 01.684-3.375l1.659-4.17a2.915 2.96 0 00-.1.874c0 4.245 16.454 18.163 38.502 18.163 5.67 0 13.874-1.188 13.874-8.039a6.346 6.446 0 00-.14-1.574z"/></svg>