<svg width="20" height="20" viewBox="0 0 20 20" fill="none" xmlns="http://www.w3.org/2000/svg"><path d="M12.89 11.555l-.112.029c.27 1.14.51 2.03.684 2.702.174.668.276 1.122.276 1.351a.31.31 0 01-.025.147l-.042.014a.976.976 0 01-.375-.14c-.557-.296-1.578-1.036-3.228-2.066l-.06-.038-.058.04c-1.112.694-1.94 1.257-2.535 1.643a9.994 9.994 0 01-.723.443.991.991 0 01-.377.144l-.043-.016a.317.317 0 01-.024-.14c0-.232.105-.688.282-1.36.176-.673.421-1.574.692-2.724l.02-.07-.056-.047c-1.05-.91-1.864-1.556-2.412-2.019a7.642 7.642 0 01-.616-.557c-.136-.14-.186-.25-.178-.273l.02-.03a.92.92 0 01.375-.111c.617-.097 1.883-.107 3.844-.262l.07-.008.027-.066c.551-1.343.915-2.353 1.181-3.022.133-.334.243-.583.336-.74a.757.757 0 01.119-.163l.055-.032.055.032c.119.107.306.513.555 1.17.257.658.59 1.579 1.067 2.755l.028.066.07.006c1.49.121 2.577.155 3.286.206.351.026.612.058.77.102.08.02.13.046.152.066l.02.03c.008.025-.042.133-.178.274-.405.434-1.448 1.213-3.016 2.576l-.053.046.015.07.113-.028.073.089c1.043-.905 1.85-1.552 2.4-2.017.22-.18.432-.372.632-.575.144-.159.237-.28.245-.434a.27.27 0 00-.109-.214 1.095 1.095 0 00-.482-.16c-.65-.097-1.898-.105-3.85-.262l-.01.115.107-.044c-.545-1.34-.902-2.347-1.171-3.02a5.953 5.953 0 00-.348-.773.966.966 0 00-.162-.217.313.313 0 00-.21-.092.313.313 0 00-.208.092c-.194.191-.356.591-.619 1.257-.257.663-.592 1.578-1.074 2.755l.106.042-.01-.115c-1.489.119-2.573.153-3.292.205a4.642 4.642 0 00-.816.109.656.656 0 00-.237.108.27.27 0 00-.107.214c.006.154.099.275.245.434.439.466 1.472 1.229 3.042 2.594l.075-.09-.11-.027c-.271 1.146-.514 2.043-.692 2.719-.178.68-.288 1.128-.29 1.42 0 .102.014.19.063.269a.27.27 0 00.233.12c.172-.018.337-.077.484-.17.589-.316 1.606-1.056 3.27-2.096l-.06-.1-.06.1c1.097.684 1.913 1.24 2.505 1.623.297.195.538.346.735.449.198.104.344.166.482.168a.269.269 0 00.233-.12.509.509 0 00.061-.274c0-.287-.108-.738-.282-1.41-.174-.673-.415-1.562-.681-2.698l-.111.026.073.089zm3.946-3.22l.108-.037c-.13-.412-.466-.627-.825-.734-.362-.109-.761-.125-1.077-.14l-.006.116.01-.117c-.92-.07-1.817-.102-2.732-.17l-.008.116.105-.042c-.332-.865-.648-1.73-1-2.58l-.104.046.106-.044c-.118-.296-.256-.676-.468-.992-.211-.313-.513-.575-.938-.573-.43 0-.739.258-.95.573-.217.316-.356.696-.472.992-.334.85-.65 1.713-.998 2.574l.105.046-.008-.117c-.913.069-1.811.1-2.732.171l.01.117-.006-.117c-.316.016-.715.032-1.076.14-.36.108-.696.323-.826.735-.033.101-.05.207-.05.314.01.69.668 1.186 1.067 1.54l.004.004c.717.595 1.432 1.17 2.131 1.763l.074-.09-.111-.028c-.233.915-.466 1.795-.7 2.71v.002c-.078.316-.19.724-.19 1.122-.003.366.1.738.434.985l.067-.096-.07.094c.171.13.38.2.593.198.54-.002 1.067-.372 1.452-.616.768-.492 1.535-1.02 2.315-1.508l-.06-.1-.062.1c.764.489 1.515.998 2.299 1.49.387.244.909.607 1.446.612a.999.999 0 00.594-.192h.002c.33-.249.43-.627.429-.993 0-.394-.109-.798-.186-1.112a160.94 160.94 0 01-.681-2.694l-.11.026.072.09c.698-.593 1.399-1.17 2.114-1.763.4-.356 1.059-.853 1.069-1.542 0-.107-.017-.213-.05-.314l-.109.036-.108.038a.788.788 0 01.037.24c.01.516-.572 1.009-.987 1.363l.075.088-.071-.088c-.715.591-1.417 1.168-2.118 1.763l-.053.047.016.07c.217.899.45 1.8.683 2.696l.11-.028-.11.028c.08.316.178.704.178 1.056 0 .332-.083.611-.336.804l.07.095-.066-.095a.779.779 0 01-.464.147c-.435.004-.937-.323-1.324-.575-.782-.49-1.53-.997-2.299-1.492l-.06-.038-.06.04c-.787.493-1.553 1.018-2.317 1.508-.386.248-.897.585-1.328.583a.736.736 0 01-.456-.154h-.002c-.257-.193-.34-.469-.342-.797 0-.352.107-.746.186-1.065.233-.913.466-1.796.7-2.711l.017-.072-.055-.047c-.702-.595-1.419-1.172-2.134-1.763l-.07.088.074-.088c-.415-.354-.997-.847-.987-1.363a.73.73 0 01.04-.242c.1-.315.347-.482.67-.583.323-.096.706-.116 1.024-.133.914-.068 1.813-.1 2.734-.168l.069-.006.028-.067c.351-.867.667-1.731.999-2.578.119-.297.253-.663.446-.945.196-.281.43-.472.763-.472.326 0 .555.189.75.472.19.282.326.648.443.945.35.847.666 1.71 1 2.576l.025.068.071.007c.92.066 1.818.1 2.732.168h.002c.316.017.701.037 1.023.133.324.1.571.268.672.583z" fill="#2ca01c"/></svg>